<?xml version="1.0" encoding="UTF-8"?>
<!--
  Farroway logo — 512x512 reference (v9). Same composition as
  public/icons/farroway-mark.svg, scaled for raster generators.
-->
<svg xmlns="http://www.w3.org/2000/svg"
     viewBox="0 0 512 512"
     role="img"
     aria-label="Farroway">
  <title>Farroway</title>

  <defs>
    <clipPath id="leafClip">
      <path d="M 256 31
               Q 113 72, 72 246
               Q 61 420, 256 481
               Q 451 420, 440 246
               Q 399 72, 256 31 Z" />
    </clipPath>
    <linearGradient id="leafGrad" x1="100%" y1="0%" x2="0%" y2="100%">
      <stop offset="0%"   stop-color="#A3E635" />
      <stop offset="55%"  stop-color="#22C55E" />
      <stop offset="100%" stop-color="#15803D" />
    </linearGradient>
  </defs>

  <g clip-path="url(#leafClip)">
    <rect x="0" y="0" width="512" height="512" fill="url(#leafGrad)" />
    <path d="M 563 256 L 563 563 L 154 563 Q 328 358, 563 256 Z"
          fill="#7C3F1D" />
    <path d="M 113 287 Q 246 154, 399 123"
          fill="none" stroke="#FFFFFF"
          stroke-width="31" stroke-linecap="round" />
    <path d="M 82 338 Q 246 287, 420 266"
          fill="none" stroke="#FFFFFF"
          stroke-width="26" stroke-linecap="round" />
    <path d="M 123 410 Q 256 369, 410 328"
          fill="none" stroke="#FFFFFF"
          stroke-width="20" stroke-linecap="round" />
  </g>

  <polygon points="420,92 328,113 369,164"
           fill="#FFFFFF" stroke="#FFFFFF"
           stroke-width="3" stroke-linejoin="round" />
</svg>
