<svg xmlns="http://www.w3.org/2000/svg" viewBox="0 0 512 512">
  <defs>
    <linearGradient id="g" x1="0.2" y1="0" x2="0.8" y2="1">
      <stop offset="0%" stop-color="#B8E635"/>
      <stop offset="35%" stop-color="#4ADE80"/>
      <stop offset="70%" stop-color="#22C55E"/>
      <stop offset="100%" stop-color="#15803D"/>
    </linearGradient>
  </defs>
  <!-- Shield shape — asymmetric leaf-like shield matching Farroway brand -->
  <path d="
    M 180 56
    C 260 36, 380 52, 432 88
    C 440 140, 436 220, 412 292
    C 388 360, 330 416, 260 464
    C 200 420, 140 356, 108 280
    C 76 204, 80 120, 96 76
    C 120 60, 150 56, 180 56
    Z
  " fill="url(#g)"/>
  <!-- Field furrow lines — dark strokes representing farmland rows -->
  <path d="M 120 195 C 180 172, 320 164, 420 200" stroke="#0F172A" stroke-width="14" fill="none" stroke-linecap="round" opacity="0.85"/>
  <path d="M 112 265 C 175 240, 330 230, 415 268" stroke="#0F172A" stroke-width="12" fill="none" stroke-linecap="round" opacity="0.75"/>
  <path d="M 125 330 C 185 310, 310 302, 390 335" stroke="#0F172A" stroke-width="10" fill="none" stroke-linecap="round" opacity="0.55"/>
</svg>
