<?xml version="1.0" encoding="UTF-8"?>
<!--
  Farroway logo — 512x512 reference asset (v7, April 2026).

  Same composition as public/icons/farroway-mark.svg, scaled
  for raster generators.
-->
<svg xmlns="http://www.w3.org/2000/svg"
     viewBox="0 0 512 512"
     role="img"
     aria-label="Farroway">
  <title>Farroway</title>

  <defs>
    <clipPath id="leafClip">
      <path d="M 256 31
               Q 113 72, 72 235
               Q 61 420, 256 481
               Q 451 420, 440 235
               Q 399 72, 256 31 Z" />
    </clipPath>
  </defs>

  <!-- Dark-green outline. -->
  <path d="M 256 31
           Q 113 72, 72 235
           Q 61 420, 256 481
           Q 451 420, 440 235
           Q 399 72, 256 31 Z"
        fill="none"
        stroke="#15803D"
        stroke-width="26"
        stroke-linejoin="round" />

  <g clip-path="url(#leafClip)">
    <rect x="0" y="0" width="512" height="512" fill="#22C55E" />
    <polygon points="-51,-51 563,-51 563,41 -51,143"
             fill="#A3E635" opacity="0.55" />
    <polygon points="-51,430 563,256 563,614 -51,614" fill="#FFFFFF" />
  </g>

  <!-- Solid dark-navy chevron arrow. -->
  <polygon
    points="399,82 307,92 358,143 174,338 123,389 154,420 205,368 389,174 338,194"
    fill="#0B1220"
    stroke="#0B1220"
    stroke-width="3"
    stroke-linejoin="round" />
</svg>
