<svg xmlns="http://www.w3.org/2000/svg" viewBox="0 0 240 240" role="img" aria-label="Cassava">
  <defs>
    <radialGradient id="bg" cx="50%" cy="42%" r="70%">
      <stop offset="0%" stop-color="#1B3A2A"/>
      <stop offset="70%" stop-color="#0F2133"/>
      <stop offset="100%" stop-color="#0B1D34"/>
    </radialGradient>
    <linearGradient id="crop" x1="0" y1="0" x2="0" y2="1">
      <stop offset="0%" stop-color="#CDEF4A"/>
      <stop offset="50%" stop-color="#8AD648"/>
      <stop offset="100%" stop-color="#45B845"/>
    </linearGradient>
    <linearGradient id="warm" x1="0" y1="0" x2="0" y2="1">
      <stop offset="0%" stop-color="#FDE68A"/>
      <stop offset="100%" stop-color="#F59E0B"/>
    </linearGradient>
    <linearGradient id="red" x1="0" y1="0" x2="0" y2="1">
      <stop offset="0%" stop-color="#FCA5A5"/>
      <stop offset="100%" stop-color="#DC2626"/>
    </linearGradient>
    <linearGradient id="brown" x1="0" y1="0" x2="0" y2="1">
      <stop offset="0%" stop-color="#D6A77A"/>
      <stop offset="100%" stop-color="#8B5E3C"/>
    </linearGradient>
  </defs>
  <rect width="240" height="240" fill="url(#bg)"/>
  
    <g stroke="#0a2015" stroke-width="2" stroke-linejoin="round">
      <path d="M100 115 Q 70 90 55 105 Q 75 125 100 120 Z" fill="url(#crop)"/>
      <path d="M140 115 Q 170 90 185 105 Q 165 125 140 120 Z" fill="url(#crop)"/>
      <path d="M120 95 Q 110 60 120 40 Q 130 60 120 95 Z" fill="url(#crop)"/>
      <path d="M120 130 Q 90 140 95 175 Q 105 205 120 210 Q 135 205 145 175 Q 150 140 120 130 Z" fill="url(#brown)"/>
    </g>
</svg>
