<svg xmlns="http://www.w3.org/2000/svg" viewBox="0 0 240 240" role="img" aria-label="Cocoa">
  <defs>
    <radialGradient id="bg" cx="50%" cy="42%" r="70%">
      <stop offset="0%" stop-color="#1B3A2A"/>
      <stop offset="70%" stop-color="#0F2133"/>
      <stop offset="100%" stop-color="#0B1D34"/>
    </radialGradient>
    <linearGradient id="crop" x1="0" y1="0" x2="0" y2="1">
      <stop offset="0%" stop-color="#CDEF4A"/>
      <stop offset="50%" stop-color="#8AD648"/>
      <stop offset="100%" stop-color="#45B845"/>
    </linearGradient>
    <linearGradient id="warm" x1="0" y1="0" x2="0" y2="1">
      <stop offset="0%" stop-color="#FDE68A"/>
      <stop offset="100%" stop-color="#F59E0B"/>
    </linearGradient>
    <linearGradient id="red" x1="0" y1="0" x2="0" y2="1">
      <stop offset="0%" stop-color="#FCA5A5"/>
      <stop offset="100%" stop-color="#DC2626"/>
    </linearGradient>
    <linearGradient id="brown" x1="0" y1="0" x2="0" y2="1">
      <stop offset="0%" stop-color="#D6A77A"/>
      <stop offset="100%" stop-color="#8B5E3C"/>
    </linearGradient>
  </defs>
  <rect width="240" height="240" fill="url(#bg)"/>
  
    <g stroke="#0a2015" stroke-width="2" stroke-linejoin="round">
      <path d="M90 80 Q 100 60 120 65 Q 140 60 150 80 Q 170 130 155 185 Q 140 215 120 215 Q 100 215 85 185 Q 70 130 90 80 Z" fill="#B45309"/>
      <path d="M105 90 Q 110 130 105 180" fill="none" stroke="#78350F" stroke-width="2" opacity="0.7"/>
      <path d="M120 85 Q 120 130 120 195" fill="none" stroke="#78350F" stroke-width="2" opacity="0.7"/>
      <path d="M135 90 Q 130 130 135 180" fill="none" stroke="#78350F" stroke-width="2" opacity="0.7"/>
      <path d="M120 65 L 120 45 L 105 35 M120 45 L 135 35" fill="none" stroke="#45B845" stroke-width="4" stroke-linecap="round"/>
    </g>
</svg>
