<svg xmlns="http://www.w3.org/2000/svg" viewBox="0 0 240 240" role="img" aria-label="Maize">
  <defs>
    <radialGradient id="bg" cx="50%" cy="42%" r="70%">
      <stop offset="0%" stop-color="#1B3A2A"/>
      <stop offset="70%" stop-color="#0F2133"/>
      <stop offset="100%" stop-color="#0B1D34"/>
    </radialGradient>
    <linearGradient id="crop" x1="0" y1="0" x2="0" y2="1">
      <stop offset="0%" stop-color="#CDEF4A"/>
      <stop offset="50%" stop-color="#8AD648"/>
      <stop offset="100%" stop-color="#45B845"/>
    </linearGradient>
    <linearGradient id="warm" x1="0" y1="0" x2="0" y2="1">
      <stop offset="0%" stop-color="#FDE68A"/>
      <stop offset="100%" stop-color="#F59E0B"/>
    </linearGradient>
    <linearGradient id="red" x1="0" y1="0" x2="0" y2="1">
      <stop offset="0%" stop-color="#FCA5A5"/>
      <stop offset="100%" stop-color="#DC2626"/>
    </linearGradient>
    <linearGradient id="brown" x1="0" y1="0" x2="0" y2="1">
      <stop offset="0%" stop-color="#D6A77A"/>
      <stop offset="100%" stop-color="#8B5E3C"/>
    </linearGradient>
  </defs>
  <rect width="240" height="240" fill="url(#bg)"/>
  
    <g stroke="#0a2015" stroke-width="2" stroke-linejoin="round">
      <path d="M95 90 Q 70 80 55 105 Q 80 95 95 115 Z" fill="url(#crop)"/>
      <path d="M145 90 Q 170 80 185 105 Q 160 95 145 115 Z" fill="url(#crop)"/>
      <path d="M120 70 L 150 100 L 148 200 Q 140 215 120 215 Q 100 215 92 200 L 90 100 Z" fill="url(#warm)"/>
      <g fill="#F59E0B" opacity="0.6">
        <circle cx="108" cy="130" r="5"/><circle cx="120" cy="130" r="5"/><circle cx="132" cy="130" r="5"/>
        <circle cx="108" cy="150" r="5"/><circle cx="120" cy="150" r="5"/><circle cx="132" cy="150" r="5"/>
        <circle cx="108" cy="170" r="5"/><circle cx="120" cy="170" r="5"/><circle cx="132" cy="170" r="5"/>
        <circle cx="108" cy="190" r="5"/><circle cx="120" cy="190" r="5"/><circle cx="132" cy="190" r="5"/>
      </g>
    </g>
</svg>
