<svg xmlns="http://www.w3.org/2000/svg" viewBox="0 0 240 240" role="img" aria-label="Okra">
  <defs>
    <radialGradient id="bg" cx="50%" cy="42%" r="70%">
      <stop offset="0%" stop-color="#1B3A2A"/>
      <stop offset="70%" stop-color="#0F2133"/>
      <stop offset="100%" stop-color="#0B1D34"/>
    </radialGradient>
    <linearGradient id="crop" x1="0" y1="0" x2="0" y2="1">
      <stop offset="0%" stop-color="#CDEF4A"/>
      <stop offset="50%" stop-color="#8AD648"/>
      <stop offset="100%" stop-color="#45B845"/>
    </linearGradient>
    <linearGradient id="warm" x1="0" y1="0" x2="0" y2="1">
      <stop offset="0%" stop-color="#FDE68A"/>
      <stop offset="100%" stop-color="#F59E0B"/>
    </linearGradient>
    <linearGradient id="red" x1="0" y1="0" x2="0" y2="1">
      <stop offset="0%" stop-color="#FCA5A5"/>
      <stop offset="100%" stop-color="#DC2626"/>
    </linearGradient>
    <linearGradient id="brown" x1="0" y1="0" x2="0" y2="1">
      <stop offset="0%" stop-color="#D6A77A"/>
      <stop offset="100%" stop-color="#8B5E3C"/>
    </linearGradient>
  </defs>
  <rect width="240" height="240" fill="url(#bg)"/>
  
    <g stroke="#0a2015" stroke-width="2" stroke-linejoin="round">
      <path d="M100 50 L 120 40 L 140 50 L 135 75" fill="url(#crop)"/>
      <path d="M135 75 Q 145 110 148 150 Q 145 190 125 215 Q 110 215 105 180 Q 105 130 115 75 Z" fill="url(#crop)"/>
      <path d="M120 90 L 120 200" fill="none" stroke="#0a2015" stroke-width="1.5" opacity="0.4"/>
      <path d="M110 100 Q 105 140 115 190" fill="none" stroke="#0a2015" stroke-width="1" opacity="0.3"/>
      <path d="M130 100 Q 135 140 130 190" fill="none" stroke="#0a2015" stroke-width="1" opacity="0.3"/>
    </g>
</svg>
