<svg xmlns="http://www.w3.org/2000/svg" viewBox="0 0 240 240" role="img" aria-label="Onion">
  <defs>
    <radialGradient id="bg" cx="50%" cy="42%" r="70%">
      <stop offset="0%" stop-color="#1B3A2A"/>
      <stop offset="70%" stop-color="#0F2133"/>
      <stop offset="100%" stop-color="#0B1D34"/>
    </radialGradient>
    <linearGradient id="crop" x1="0" y1="0" x2="0" y2="1">
      <stop offset="0%" stop-color="#CDEF4A"/>
      <stop offset="50%" stop-color="#8AD648"/>
      <stop offset="100%" stop-color="#45B845"/>
    </linearGradient>
    <linearGradient id="warm" x1="0" y1="0" x2="0" y2="1">
      <stop offset="0%" stop-color="#FDE68A"/>
      <stop offset="100%" stop-color="#F59E0B"/>
    </linearGradient>
    <linearGradient id="red" x1="0" y1="0" x2="0" y2="1">
      <stop offset="0%" stop-color="#FCA5A5"/>
      <stop offset="100%" stop-color="#DC2626"/>
    </linearGradient>
    <linearGradient id="brown" x1="0" y1="0" x2="0" y2="1">
      <stop offset="0%" stop-color="#D6A77A"/>
      <stop offset="100%" stop-color="#8B5E3C"/>
    </linearGradient>
  </defs>
  <rect width="240" height="240" fill="url(#bg)"/>
  
    <g stroke="#0a2015" stroke-width="2" stroke-linejoin="round">
      <path d="M120 70 Q 110 30 100 20" fill="none" stroke="#45B845" stroke-width="5" stroke-linecap="round"/>
      <path d="M120 70 Q 120 35 115 15" fill="none" stroke="#45B845" stroke-width="5" stroke-linecap="round"/>
      <path d="M120 70 Q 130 30 140 20" fill="none" stroke="#45B845" stroke-width="5" stroke-linecap="round"/>
      <path d="M70 120 Q 75 90 120 85 Q 165 90 170 120 Q 170 195 120 210 Q 70 195 70 120 Z" fill="url(#warm)"/>
      <path d="M95 100 Q 110 180 105 205" fill="none" stroke="#D6A77A" stroke-width="2" opacity="0.6"/>
      <path d="M145 100 Q 130 180 135 205" fill="none" stroke="#D6A77A" stroke-width="2" opacity="0.6"/>
    </g>
</svg>
