<svg xmlns="http://www.w3.org/2000/svg" viewBox="0 0 240 240" role="img" aria-label="Potato">
  <defs>
    <radialGradient id="bg" cx="50%" cy="42%" r="70%">
      <stop offset="0%" stop-color="#1B3A2A"/>
      <stop offset="70%" stop-color="#0F2133"/>
      <stop offset="100%" stop-color="#0B1D34"/>
    </radialGradient>
    <linearGradient id="crop" x1="0" y1="0" x2="0" y2="1">
      <stop offset="0%" stop-color="#CDEF4A"/>
      <stop offset="50%" stop-color="#8AD648"/>
      <stop offset="100%" stop-color="#45B845"/>
    </linearGradient>
    <linearGradient id="warm" x1="0" y1="0" x2="0" y2="1">
      <stop offset="0%" stop-color="#FDE68A"/>
      <stop offset="100%" stop-color="#F59E0B"/>
    </linearGradient>
    <linearGradient id="red" x1="0" y1="0" x2="0" y2="1">
      <stop offset="0%" stop-color="#FCA5A5"/>
      <stop offset="100%" stop-color="#DC2626"/>
    </linearGradient>
    <linearGradient id="brown" x1="0" y1="0" x2="0" y2="1">
      <stop offset="0%" stop-color="#D6A77A"/>
      <stop offset="100%" stop-color="#8B5E3C"/>
    </linearGradient>
  </defs>
  <rect width="240" height="240" fill="url(#bg)"/>
  
    <g stroke="#0a2015" stroke-width="2" stroke-linejoin="round">
      <path d="M90 80 Q 80 70 90 55 Q 100 55 100 70" fill="url(#crop)"/>
      <path d="M110 65 Q 110 50 120 45 Q 130 50 125 70" fill="url(#crop)"/>
      <ellipse cx="120" cy="135" rx="70" ry="60" fill="url(#brown)"/>
      <g fill="#8B5E3C">
        <circle cx="95" cy="120" r="4"/>
        <circle cx="130" cy="110" r="4"/>
        <circle cx="150" cy="140" r="4"/>
        <circle cx="100" cy="160" r="4"/>
        <circle cx="140" cy="170" r="4"/>
      </g>
    </g>
</svg>
