<svg xmlns="http://www.w3.org/2000/svg" viewBox="0 0 240 240" role="img" aria-label="Rice">
  <defs>
    <radialGradient id="bg" cx="50%" cy="42%" r="70%">
      <stop offset="0%" stop-color="#1B3A2A"/>
      <stop offset="70%" stop-color="#0F2133"/>
      <stop offset="100%" stop-color="#0B1D34"/>
    </radialGradient>
    <linearGradient id="crop" x1="0" y1="0" x2="0" y2="1">
      <stop offset="0%" stop-color="#CDEF4A"/>
      <stop offset="50%" stop-color="#8AD648"/>
      <stop offset="100%" stop-color="#45B845"/>
    </linearGradient>
    <linearGradient id="warm" x1="0" y1="0" x2="0" y2="1">
      <stop offset="0%" stop-color="#FDE68A"/>
      <stop offset="100%" stop-color="#F59E0B"/>
    </linearGradient>
    <linearGradient id="red" x1="0" y1="0" x2="0" y2="1">
      <stop offset="0%" stop-color="#FCA5A5"/>
      <stop offset="100%" stop-color="#DC2626"/>
    </linearGradient>
    <linearGradient id="brown" x1="0" y1="0" x2="0" y2="1">
      <stop offset="0%" stop-color="#D6A77A"/>
      <stop offset="100%" stop-color="#8B5E3C"/>
    </linearGradient>
  </defs>
  <rect width="240" height="240" fill="url(#bg)"/>
  
    <g>
      <path d="M120 210 L 120 70" stroke="#45B845" stroke-width="3" stroke-linecap="round" fill="none"/>
      <path d="M120 70 Q 80 55 60 85" stroke="#CDEF4A" stroke-width="3" stroke-linecap="round" fill="none"/>
      <path d="M120 70 Q 160 55 180 85" stroke="#CDEF4A" stroke-width="3" stroke-linecap="round" fill="none"/>
      <path d="M120 85 Q 95 75 80 100" stroke="#CDEF4A" stroke-width="3" stroke-linecap="round" fill="none"/>
      <path d="M120 85 Q 145 75 160 100" stroke="#CDEF4A" stroke-width="3" stroke-linecap="round" fill="none"/>
      <g fill="url(#warm)" stroke="#0a2015" stroke-width="1">
        <ellipse cx="60" cy="85" rx="7" ry="4" transform="rotate(-25 60 85)"/>
        <ellipse cx="180" cy="85" rx="7" ry="4" transform="rotate(25 180 85)"/>
        <ellipse cx="80" cy="100" rx="7" ry="4" transform="rotate(-25 80 100)"/>
        <ellipse cx="160" cy="100" rx="7" ry="4" transform="rotate(25 160 100)"/>
        <ellipse cx="90" cy="65" rx="6" ry="4" transform="rotate(-25 90 65)"/>
        <ellipse cx="150" cy="65" rx="6" ry="4" transform="rotate(25 150 65)"/>
      </g>
    </g>
</svg>
