<svg xmlns="http://www.w3.org/2000/svg" viewBox="0 0 240 240" role="img" aria-label="Tomato">
  <defs>
    <radialGradient id="bg" cx="50%" cy="42%" r="70%">
      <stop offset="0%" stop-color="#1B3A2A"/>
      <stop offset="70%" stop-color="#0F2133"/>
      <stop offset="100%" stop-color="#0B1D34"/>
    </radialGradient>
    <linearGradient id="crop" x1="0" y1="0" x2="0" y2="1">
      <stop offset="0%" stop-color="#CDEF4A"/>
      <stop offset="50%" stop-color="#8AD648"/>
      <stop offset="100%" stop-color="#45B845"/>
    </linearGradient>
    <linearGradient id="warm" x1="0" y1="0" x2="0" y2="1">
      <stop offset="0%" stop-color="#FDE68A"/>
      <stop offset="100%" stop-color="#F59E0B"/>
    </linearGradient>
    <linearGradient id="red" x1="0" y1="0" x2="0" y2="1">
      <stop offset="0%" stop-color="#FCA5A5"/>
      <stop offset="100%" stop-color="#DC2626"/>
    </linearGradient>
    <linearGradient id="brown" x1="0" y1="0" x2="0" y2="1">
      <stop offset="0%" stop-color="#D6A77A"/>
      <stop offset="100%" stop-color="#8B5E3C"/>
    </linearGradient>
  </defs>
  <rect width="240" height="240" fill="url(#bg)"/>
  
    <g stroke="#0a2015" stroke-width="2" stroke-linejoin="round">
      <circle cx="120" cy="140" r="60" fill="url(#red)"/>
      <path d="M120 80 L 105 60 L 95 75 L 85 60 L 90 80 L 75 85 L 95 95 L 85 105 L 105 100 L 110 115 L 120 100 L 130 115 L 135 100 L 155 105 L 145 95 L 165 85 L 150 80 L 155 60 L 145 75 L 135 60 Z" fill="url(#crop)"/>
      <path d="M120 95 L 120 80" stroke="#45B845" stroke-width="4" stroke-linecap="round"/>
    </g>
</svg>
