<svg xmlns="http://www.w3.org/2000/svg" viewBox="0 0 800 720" preserveAspectRatio="xMidYMid slice" role="img" aria-label="Warm dry field">
  <defs>
    <linearGradient id="sky" x1="0" y1="0" x2="0" y2="1">
      <stop offset="0%"  stop-color="#3a2c1c"/>
      <stop offset="55%" stop-color="#5d3a1e"/>
      <stop offset="85%" stop-color="#cf7a36"/>
      <stop offset="100%" stop-color="#f3b35a"/>
    </linearGradient>
    <radialGradient id="sun" cx="76%" cy="68%" r="32%">
      <stop offset="0%"  stop-color="rgba(255,210,120,0.85)"/>
      <stop offset="100%" stop-color="rgba(255,180,90,0)"/>
    </radialGradient>
    <linearGradient id="dryCanopy" x1="0" y1="0" x2="0" y2="1">
      <stop offset="0%"  stop-color="#7a6a30"/>
      <stop offset="55%" stop-color="#3e3318"/>
      <stop offset="100%" stop-color="#1a1408"/>
    </linearGradient>
    <linearGradient id="furrow" x1="0" y1="0" x2="0" y2="1">
      <stop offset="0%"  stop-color="rgba(0,0,0,0.0)"/>
      <stop offset="100%" stop-color="rgba(0,0,0,0.65)"/>
    </linearGradient>
  </defs>
  <rect width="800" height="450" fill="url(#sky)"/>
  <rect width="800" height="450" fill="url(#sun)"/>
  <circle cx="608" cy="408" r="22" fill="rgba(255,220,150,0.95)"/>
  <path d="M 0,432 L 80,420 L 140,428 L 200,412 L 280,424 L 360,414 L 440,424
           L 520,418 L 600,422 L 680,412 L 760,420 L 800,418 L 800,448 L 0,448 Z"
        fill="#1f1408"/>
  <rect x="0" y="448" width="800" height="272" fill="url(#dryCanopy)"/>
  <g stroke="rgba(20,12,4,0.55)" stroke-linecap="round" fill="none">
    <path d="M 400,448 L 400,720" stroke-width="6" stroke="rgba(35,24,12,0.95)"/>
    <path d="M 408,448 L 520,720" stroke-width="3"/>
    <path d="M 418,448 L 670,720" stroke-width="3.4"/>
    <path d="M 428,448 L 800,710" stroke-width="3.6"/>
    <path d="M 392,448 L 280,720" stroke-width="3"/>
    <path d="M 382,448 L 130,720" stroke-width="3.4"/>
    <path d="M 372,448 L  -10,710" stroke-width="3.6"/>
  </g>
  <rect x="0" y="540" width="800" height="180" fill="url(#furrow)"/>
</svg>
